<svg id="visual" viewBox="0 0 900 600" width="900" height="600" xmlns="http://www.w3.org/2000/svg" xmlns:xlink="http://www.w3.org/1999/xlink" version="1.1"><rect x="0" y="0" width="900" height="600" fill="#e5e5e5"></rect><path d="M0 66L21.5 73.3C43 80.7 86 95.3 128.8 92.8C171.7 90.3 214.3 70.7 257.2 72.5C300 74.3 343 97.7 385.8 106.8C428.7 116 471.3 111 514.2 99.3C557 87.7 600 69.3 642.8 71C685.7 72.7 728.3 94.3 771.2 93.8C814 93.3 857 70.7 878.5 59.3L900 48L900 0L878.5 0C857 0 814 0 771.2 0C728.3 0 685.7 0 642.8 0C600 0 557 0 514.2 0C471.3 0 428.7 0 385.8 0C343 0 300 0 257.2 0C214.3 0 171.7 0 128.8 0C86 0 43 0 21.5 0L0 0Z" fill="#14213d" stroke-linecap="round" stroke-linejoin="miter"></path></svg>